<?xml version="1.0" standalone="no"?>
<!DOCTYPE svg PUBLIC "-//W3C//DTD SVG 20010904//EN"
 "http://www.w3.org/TR/2001/REC-SVG-20010904/DTD/svg10.dtd">
<svg version="1.0" xmlns="http://www.w3.org/2000/svg"
 width="555.000000pt" height="555.000000pt" viewBox="0 0 555.000000 555.000000"
 preserveAspectRatio="xMidYMid meet">
<metadata>
Created by potrace 1.14, written by Peter Selinger 2001-2017
</metadata>
<g transform="translate(0.000000,555.000000) scale(0.100000,-0.100000)"
fill="#000000" stroke="none">
<path d="M133 4608 c-37 -12 -79 -49 -108 -93 -20 -29 -20 -61 -22 -1731 -3
-1863 -7 -1734 56 -1801 65 -68 -167 -63 2720 -63 l2616 0 43 22 c48 25 83 65
100 117 17 49 17 3373 0 3422 -18 54 -48 87 -102 114 l-50 25 -2610 -1 c-1769
-1 -2621 -4 -2643 -11z"/>
</g>
</svg>
